<svg width="17" height="17" viewBox="0 0 17 17" fill="none" xmlns="http://www.w3.org/2000/svg">
<path fill-rule="evenodd" clip-rule="evenodd" d="M7.66367 0.848525C7.82625 0.84827 8.00114 0.848349 8.18988 0.848434L8.50096 0.848525C10.993 0.848525 11.2883 0.857469 12.2724 0.902192C13.1824 0.943804 13.6763 1.09586 14.0053 1.22361C14.4409 1.39278 14.7514 1.595 15.0779 1.92167C15.4046 2.24835 15.6068 2.55946 15.7764 2.99502C15.9041 3.32363 16.0564 3.81753 16.0978 4.72754C16.1425 5.71144 16.1522 6.007 16.1522 8.49786C16.1522 10.9887 16.1425 11.2843 16.0978 12.2682C16.0562 13.1782 15.9041 13.6721 15.7764 14.0007C15.6072 14.4362 15.4046 14.7464 15.0779 15.0729C14.7512 15.3995 14.4411 15.6018 14.0053 15.7709C13.6767 15.8993 13.1824 16.0509 12.2724 16.0925C11.2885 16.1373 10.993 16.147 8.50096 16.147C6.00874 16.147 5.71337 16.1373 4.72947 16.0925C3.81946 16.0505 3.32557 15.8985 2.99637 15.7707C2.56081 15.6016 2.2497 15.3993 1.92303 15.0727C1.59636 14.746 1.39413 14.4357 1.22457 13.9999C1.09682 13.6713 0.944572 13.1774 0.903155 12.2674C0.858432 11.2835 0.849487 10.9879 0.849487 8.49552C0.849487 6.00311 0.858432 5.7091 0.903155 4.7252C0.944766 3.81519 1.09682 3.3213 1.22457 2.9923C1.39374 2.55674 1.59636 2.24562 1.92303 1.91895C2.2497 1.59228 2.56081 1.39006 2.99637 1.2205C3.32537 1.09217 3.81946 0.940498 4.72947 0.898692C5.59048 0.859803 5.92415 0.848136 7.66367 0.846191V0.848525ZM13.4828 2.39825C12.8645 2.39825 12.3628 2.89934 12.3628 3.51787C12.3628 4.13621 12.8645 4.63788 13.4828 4.63788C14.1012 4.63788 14.6028 4.13621 14.6028 3.51787C14.6028 2.89953 14.1012 2.39786 13.4828 2.39786V2.39825ZM3.70767 8.50004C3.70767 5.85304 5.85378 3.70694 8.50078 3.70694H8.50058C11.1476 3.70694 13.2931 5.85304 13.2931 8.50004C13.2931 11.147 11.1478 13.2922 8.50078 13.2922C5.85378 13.2922 3.70767 11.147 3.70767 8.50004Z" fill="white"/>
</svg>
